<?xml version="1.0" encoding="UTF-8"?>
<!DOCTYPE svg PUBLIC "-//W3C//DTD SVG 1.1//EN" "http://www.w3.org/Graphics/SVG/1.1/DTD/svg11.dtd">
<svg xmlns="http://www.w3.org/2000/svg" version="1.1" width="69px" height="71px" style="shape-rendering:geometricPrecision; text-rendering:geometricPrecision; image-rendering:optimizeQuality; fill-rule:evenodd; clip-rule:evenodd" xmlns:xlink="http://www.w3.org/1999/xlink">
<g><path style="opacity:1" fill="#fefefd" d="M -0.5,-0.5 C 22.5,-0.5 45.5,-0.5 68.5,-0.5C 68.5,23.1667 68.5,46.8333 68.5,70.5C 45.5,70.5 22.5,70.5 -0.5,70.5C -0.5,46.8333 -0.5,23.1667 -0.5,-0.5 Z"/></g>
<g><path style="opacity:1" fill="#f6c591" d="M 62.5,13.5 C 53.8955,11.5289 44.8955,10.8623 35.5,11.5C 34.5,11.5 33.5,11.5 32.5,11.5C 23.1045,10.8623 14.1045,11.5289 5.5,13.5C 4.59603,12.791 4.26269,11.791 4.5,10.5C 24.1667,10.5 43.8333,10.5 63.5,10.5C 63.7373,11.791 63.404,12.791 62.5,13.5 Z"/></g>
<g><path style="opacity:1" fill="#ef9639" d="M 32.5,11.5 C 32.5,12.1667 32.1667,12.5 31.5,12.5C 22.7663,11.865 14.4329,12.5316 6.5,14.5C 5.83333,14.5 5.5,14.1667 5.5,13.5C 14.1045,11.5289 23.1045,10.8623 32.5,11.5 Z"/></g>
<g><path style="opacity:1" fill="#ee8c26" d="M 31.5,12.5 C 29.8019,16.5166 28.1352,20.5166 26.5,24.5C 23.7575,26.4489 22.0908,29.1156 21.5,32.5C 20.5,33.1667 19.5,33.8333 18.5,34.5C 18.1667,34.5 17.8333,34.5 17.5,34.5C 17.573,32.9731 16.9063,31.9731 15.5,31.5C 13.8678,28.1863 12.2011,24.853 10.5,21.5C 10.573,19.9731 9.90632,18.9731 8.5,18.5C 8.16667,17.5 7.5,16.8333 6.5,16.5C 6.5,15.8333 6.5,15.1667 6.5,14.5C 14.4329,12.5316 22.7663,11.865 31.5,12.5 Z"/></g>
<g><path style="opacity:1" fill="#ee8c26" d="M 35.5,11.5 C 44.8955,10.8623 53.8955,11.5289 62.5,13.5C 61.0937,13.9731 60.427,14.9731 60.5,16.5C 60.5,16.8333 60.5,17.1667 60.5,17.5C 58.7986,18.2114 57.7986,19.5447 57.5,21.5C 55.7497,22.6594 54.7497,24.326 54.5,26.5C 52.412,28.3356 51.0787,30.6689 50.5,33.5C 50.5,33.8333 50.5,34.1667 50.5,34.5C 49.5084,34.3284 48.8417,34.6618 48.5,35.5C 48.1667,35.5 47.8333,35.5 47.5,35.5C 47.6567,34.1266 47.49,32.7932 47,31.5C 42.8982,24.9599 39.0649,18.2933 35.5,11.5 Z"/></g>
<g><path style="opacity:1" fill="#f8a723" d="M 32.5,11.5 C 33.5,11.5 34.5,11.5 35.5,11.5C 39.0649,18.2933 42.8982,24.9599 47,31.5C 47.49,32.7932 47.6567,34.1266 47.5,35.5C 45.5,35.5 43.5,35.5 41.5,35.5C 38.4685,29.1507 33.4685,25.4841 26.5,24.5C 28.1352,20.5166 29.8019,16.5166 31.5,12.5C 32.1667,12.5 32.5,12.1667 32.5,11.5 Z"/></g>
<g><path style="opacity:1" fill="#f6be85" d="M 62.5,13.5 C 62.573,15.0269 61.9063,16.0269 60.5,16.5C 60.427,14.9731 61.0937,13.9731 62.5,13.5 Z"/></g>
<g><path style="opacity:1" fill="#f4b574" d="M 8.5,18.5 C 9.90632,18.9731 10.573,19.9731 10.5,21.5C 9.09368,21.0269 8.42702,20.0269 8.5,18.5 Z"/></g>
<g><path style="opacity:1" fill="#f8cda2" d="M 60.5,17.5 C 60.047,19.5652 59.047,21.2318 57.5,22.5C 57.5,22.1667 57.5,21.8333 57.5,21.5C 57.7986,19.5447 58.7986,18.2114 60.5,17.5 Z"/></g>
<g><path style="opacity:1" fill="#fce8d4" d="M 6.5,16.5 C 7.5,16.8333 8.16667,17.5 8.5,18.5C 8.42702,20.0269 9.09368,21.0269 10.5,21.5C 12.2011,24.853 13.8678,28.1863 15.5,31.5C 15.5,31.8333 15.5,32.1667 15.5,32.5C 10.841,28.1564 7.84097,22.8231 6.5,16.5 Z"/></g>
<g><path style="opacity:1" fill="#fab923" d="M 26.5,24.5 C 33.4685,25.4841 38.4685,29.1507 41.5,35.5C 34.8333,35.5 28.1667,35.5 21.5,35.5C 21.5,34.5 21.5,33.5 21.5,32.5C 22.0908,29.1156 23.7575,26.4489 26.5,24.5 Z"/></g>
<g><path style="opacity:1" fill="#f7c28c" d="M 57.5,21.5 C 57.5,21.8333 57.5,22.1667 57.5,22.5C 57.2014,24.4553 56.2014,25.7886 54.5,26.5C 54.7497,24.326 55.7497,22.6594 57.5,21.5 Z"/></g>
<g><path style="opacity:1" fill="#f6c088" d="M 54.5,26.5 C 54.0023,29.3263 52.6689,31.6597 50.5,33.5C 51.0787,30.6689 52.412,28.3356 54.5,26.5 Z"/></g>
<g><path style="opacity:1" fill="#f8cb9f" d="M 15.5,31.5 C 16.9063,31.9731 17.573,32.9731 17.5,34.5C 16.5,34.1667 15.8333,33.5 15.5,32.5C 15.5,32.1667 15.5,31.8333 15.5,31.5 Z"/></g>
<g><path style="opacity:1" fill="#f8b03b" d="M 21.5,32.5 C 21.5,33.5 21.5,34.5 21.5,35.5C 28.1667,35.5 34.8333,35.5 41.5,35.5C 43.5,35.5 45.5,35.5 47.5,35.5C 47.8333,35.5 48.1667,35.5 48.5,35.5C 48.5,35.8333 48.5,36.1667 48.5,36.5C 39.1607,36.6665 29.8274,36.4998 20.5,36C 19.5842,35.7216 18.9175,35.2216 18.5,34.5C 19.5,33.8333 20.5,33.1667 21.5,32.5 Z"/></g>
<g><path style="opacity:1" fill="#f5a449" d="M 17.5,34.5 C 17.8333,34.5 18.1667,34.5 18.5,34.5C 18.9175,35.2216 19.5842,35.7216 20.5,36C 29.8274,36.4998 39.1607,36.6665 48.5,36.5C 48.5,37.1667 48.1667,37.5 47.5,37.5C 38.3178,37.1734 29.3178,37.5067 20.5,38.5C 19.1224,37.4549 18.1224,36.1216 17.5,34.5 Z"/></g>
<g><path style="opacity:1" fill="#eb7326" d="M 32.5,47.5 C 30.5648,48.1495 28.5648,48.4828 26.5,48.5C 26.1667,47.5 25.5,46.8333 24.5,46.5C 24.0745,43.8808 23.0745,41.5475 21.5,39.5C 29.3225,38.3439 37.3225,38.1772 45.5,39C 42.1978,40.6511 38.8644,42.3178 35.5,44C 34.2899,45.0391 33.2899,46.2058 32.5,47.5 Z"/></g>
<g><path style="opacity:1" fill="#fbddc8" d="M 50.5,34.5 C 49.6155,38.8601 47.6155,42.5268 44.5,45.5C 44.5569,44.391 44.8902,43.391 45.5,42.5C 46.5025,40.9891 47.1692,39.3224 47.5,37.5C 48.1667,37.5 48.5,37.1667 48.5,36.5C 48.5,36.1667 48.5,35.8333 48.5,35.5C 48.8417,34.6618 49.5084,34.3284 50.5,34.5 Z"/></g>
<g><path style="opacity:1" fill="#ed7f2c" d="M 47.5,37.5 C 47.1692,39.3224 46.5025,40.9891 45.5,42.5C 43.9519,42.8212 43.2852,43.8212 43.5,45.5C 41.5923,46.4856 40.5923,48.1523 40.5,50.5C 38.7497,51.6594 37.7497,53.326 37.5,55.5C 37.1667,55.5 36.8333,55.5 36.5,55.5C 35.0715,52.928 33.7382,50.2613 32.5,47.5C 33.2899,46.2058 34.2899,45.0391 35.5,44C 38.8644,42.3178 42.1978,40.6511 45.5,39C 37.3225,38.1772 29.3225,38.3439 21.5,39.5C 21.1667,39.5 20.8333,39.5 20.5,39.5C 20.5,39.1667 20.5,38.8333 20.5,38.5C 29.3178,37.5067 38.3178,37.1734 47.5,37.5 Z"/></g>
<g><path style="opacity:1" fill="#f2a26c" d="M 45.5,42.5 C 44.8902,43.391 44.5569,44.391 44.5,45.5C 44.1667,45.5 43.8333,45.5 43.5,45.5C 43.2852,43.8212 43.9519,42.8212 45.5,42.5 Z"/></g>
<g><path style="opacity:1" fill="#f6bf9e" d="M 20.5,39.5 C 20.8333,39.5 21.1667,39.5 21.5,39.5C 23.0745,41.5475 24.0745,43.8808 24.5,46.5C 22.8009,44.4336 21.4676,42.1003 20.5,39.5 Z"/></g>
<g><path style="opacity:1" fill="#f2a36c" d="M 43.5,45.5 C 43.047,47.5652 42.047,49.2318 40.5,50.5C 40.5923,48.1523 41.5923,46.4856 43.5,45.5 Z"/></g>
<g><path style="opacity:1" fill="#ef8935" d="M 32.5,47.5 C 33.7382,50.2613 35.0715,52.928 36.5,55.5C 35.8902,56.391 35.5569,57.391 35.5,58.5C 35.1788,60.0481 34.1788,60.7148 32.5,60.5C 32.4431,59.391 32.1098,58.391 31.5,57.5C 31.573,55.9731 30.9063,54.9731 29.5,54.5C 29.573,52.9731 28.9063,51.9731 27.5,51.5C 27.1667,50.8333 26.8333,50.1667 26.5,49.5C 26.5,49.1667 26.5,48.8333 26.5,48.5C 28.5648,48.4828 30.5648,48.1495 32.5,47.5 Z"/></g>
<g><path style="opacity:1" fill="#f5ba95" d="M 24.5,46.5 C 25.5,46.8333 26.1667,47.5 26.5,48.5C 26.5,48.8333 26.5,49.1667 26.5,49.5C 25.0937,49.0269 24.427,48.0269 24.5,46.5 Z"/></g>
<g><path style="opacity:1" fill="#f5bb92" d="M 27.5,51.5 C 28.9063,51.9731 29.573,52.9731 29.5,54.5C 28.0937,54.0269 27.427,53.0269 27.5,51.5 Z"/></g>
<g><path style="opacity:1" fill="#f7bf98" d="M 40.5,50.5 C 40.4077,52.8477 39.4077,54.5144 37.5,55.5C 37.7497,53.326 38.7497,51.6594 40.5,50.5 Z"/></g>
<g><path style="opacity:1" fill="#f4b484" d="M 29.5,54.5 C 30.9063,54.9731 31.573,55.9731 31.5,57.5C 30.0937,57.0269 29.427,56.0269 29.5,54.5 Z"/></g>
<g><path style="opacity:1" fill="#f3a972" d="M 36.5,55.5 C 36.8333,55.5 37.1667,55.5 37.5,55.5C 37.4431,56.609 37.1098,57.609 36.5,58.5C 36.1667,58.5 35.8333,58.5 35.5,58.5C 35.5569,57.391 35.8902,56.391 36.5,55.5 Z"/></g>
<g><path style="opacity:1" fill="#fad8c4" d="M 35.5,58.5 C 35.8333,58.5 36.1667,58.5 36.5,58.5C 36.5499,60.5901 35.5499,61.9234 33.5,62.5C 32.7025,62.0431 32.3691,61.3764 32.5,60.5C 34.1788,60.7148 35.1788,60.0481 35.5,58.5 Z"/></g>
</svg>
